# xmcd
#
# Track frame offsets:
#	150
#	14579
#	31115
#	52564
#	69775
#	91561
#	111836
#	132241
#	150616
#
# Disc length: 2283 seconds
# Revision: 0
# Processed by: cddbd v1.5.2PL0 Copyright (c) Steve Scherf et al.
# Submitted via: dBpowerAMP V12.0
#
DISCID=5b08e909
DTITLE=The Contenders - Laughing WIth The Reckless
DYEAR=2017
DGENRE=Country
TTITLE0=Line Across the Water
TTITLE1=Call Me the Lucky One
TTITLE2=The Flood
TTITLE3=Finer Weather
TTITLE4=The Night That Jackson Fell
TTITLE5=Save a Place at the Table
TTITLE6=Something True
TTITLE7=Not Enough
TTITLE8=Hills of Caroline
EXTD=
EXTT0=
EXTT1=
EXTT2=
EXTT3=
EXTT4=
EXTT5=
EXTT6=
EXTT7=
EXTT8=
PLAYORDER=
